<mxfile host="app.diagrams.net" modified="2021-03-23T15:31:04.524Z" agent="5.0 (Windows NT 10.0; Win64; x64) AppleWebKit/537.36 (KHTML, like Gecko) Chrome/89.0.4389.90 Safari/537.36 Edg/89.0.774.57" etag="2gkaQv1YrrEzn2S-iz4c" version="14.5.0" type="github">
  <diagram id="prtHgNgQTEPvFCAcTncT" name="Page-1">
    <mxGraphModel dx="1038" dy="580" grid="0" gridSize="10" guides="1" tooltips="1" connect="1" arrows="1" fold="1" page="1" pageScale="1" pageWidth="827" pageHeight="1169" math="0" shadow="0">
      <root>
        <mxCell id="0" />
        <mxCell id="1" parent="0" />
        <mxCell id="VUjPprjEVErV6ihTRHzX-63" value="" style="rounded=1;whiteSpace=wrap;html=1;fillColor=#FFFFFF;" vertex="1" parent="1">
          <mxGeometry x="119" y="391" width="279" height="133" as="geometry" />
        </mxCell>
        <mxCell id="VUjPprjEVErV6ihTRHzX-56" value="" style="rounded=0;whiteSpace=wrap;html=1;" vertex="1" parent="1">
          <mxGeometry x="399" y="27" width="314" height="262" as="geometry" />
        </mxCell>
        <mxCell id="VUjPprjEVErV6ihTRHzX-55" value="" style="rounded=0;whiteSpace=wrap;html=1;" vertex="1" parent="1">
          <mxGeometry x="69" y="27" width="314" height="262" as="geometry" />
        </mxCell>
        <mxCell id="VUjPprjEVErV6ihTRHzX-5" value="INPUT" style="text;html=1;strokeColor=none;fillColor=none;align=center;verticalAlign=middle;whiteSpace=wrap;rounded=0;" vertex="1" parent="1">
          <mxGeometry x="113" y="34" width="40" height="20" as="geometry" />
        </mxCell>
        <mxCell id="VUjPprjEVErV6ihTRHzX-22" style="edgeStyle=none;rounded=0;orthogonalLoop=1;jettySize=auto;html=1;exitX=1;exitY=0.5;exitDx=0;exitDy=0;entryX=0;entryY=0.5;entryDx=0;entryDy=0;endArrow=classic;endFill=1;" edge="1" parent="1" source="VUjPprjEVErV6ihTRHzX-6" target="VUjPprjEVErV6ihTRHzX-14">
          <mxGeometry relative="1" as="geometry" />
        </mxCell>
        <mxCell id="VUjPprjEVErV6ihTRHzX-6" value="" style="rounded=0;whiteSpace=wrap;html=1;" vertex="1" parent="1">
          <mxGeometry x="121.5" y="120" width="21.5" height="38" as="geometry" />
        </mxCell>
        <mxCell id="VUjPprjEVErV6ihTRHzX-21" style="edgeStyle=none;rounded=0;orthogonalLoop=1;jettySize=auto;html=1;exitX=1;exitY=0.5;exitDx=0;exitDy=0;entryX=0;entryY=0.25;entryDx=0;entryDy=0;endArrow=classic;endFill=1;" edge="1" parent="1" source="VUjPprjEVErV6ihTRHzX-7" target="VUjPprjEVErV6ihTRHzX-14">
          <mxGeometry relative="1" as="geometry" />
        </mxCell>
        <mxCell id="VUjPprjEVErV6ihTRHzX-7" value="" style="rounded=0;whiteSpace=wrap;html=1;" vertex="1" parent="1">
          <mxGeometry x="121.5" y="68" width="21.5" height="38" as="geometry" />
        </mxCell>
        <mxCell id="VUjPprjEVErV6ihTRHzX-8" value="w(t-2)" style="text;html=1;strokeColor=none;fillColor=none;align=center;verticalAlign=middle;whiteSpace=wrap;rounded=0;" vertex="1" parent="1">
          <mxGeometry x="75" y="77" width="40" height="20" as="geometry" />
        </mxCell>
        <mxCell id="VUjPprjEVErV6ihTRHzX-9" value="w(t-1)" style="text;html=1;strokeColor=none;fillColor=none;align=center;verticalAlign=middle;whiteSpace=wrap;rounded=0;" vertex="1" parent="1">
          <mxGeometry x="75" y="129" width="40" height="20" as="geometry" />
        </mxCell>
        <mxCell id="VUjPprjEVErV6ihTRHzX-24" style="edgeStyle=none;rounded=0;orthogonalLoop=1;jettySize=auto;html=1;exitX=1;exitY=0.5;exitDx=0;exitDy=0;entryX=0;entryY=0.75;entryDx=0;entryDy=0;endArrow=classic;endFill=1;" edge="1" parent="1" source="VUjPprjEVErV6ihTRHzX-10" target="VUjPprjEVErV6ihTRHzX-14">
          <mxGeometry relative="1" as="geometry" />
        </mxCell>
        <mxCell id="VUjPprjEVErV6ihTRHzX-10" value="" style="rounded=0;whiteSpace=wrap;html=1;" vertex="1" parent="1">
          <mxGeometry x="121.5" y="242" width="21.5" height="38" as="geometry" />
        </mxCell>
        <mxCell id="VUjPprjEVErV6ihTRHzX-23" style="edgeStyle=none;rounded=0;orthogonalLoop=1;jettySize=auto;html=1;exitX=1;exitY=0.5;exitDx=0;exitDy=0;entryX=0;entryY=0.5;entryDx=0;entryDy=0;endArrow=classic;endFill=1;" edge="1" parent="1" source="VUjPprjEVErV6ihTRHzX-11" target="VUjPprjEVErV6ihTRHzX-14">
          <mxGeometry relative="1" as="geometry" />
        </mxCell>
        <mxCell id="VUjPprjEVErV6ihTRHzX-11" value="" style="rounded=0;whiteSpace=wrap;html=1;" vertex="1" parent="1">
          <mxGeometry x="121.5" y="190" width="21.5" height="38" as="geometry" />
        </mxCell>
        <mxCell id="VUjPprjEVErV6ihTRHzX-12" value="w(t+1)" style="text;html=1;strokeColor=none;fillColor=none;align=center;verticalAlign=middle;whiteSpace=wrap;rounded=0;" vertex="1" parent="1">
          <mxGeometry x="75" y="199" width="40" height="20" as="geometry" />
        </mxCell>
        <mxCell id="VUjPprjEVErV6ihTRHzX-13" value="w(t+2)" style="text;html=1;strokeColor=none;fillColor=none;align=center;verticalAlign=middle;whiteSpace=wrap;rounded=0;" vertex="1" parent="1">
          <mxGeometry x="75" y="251" width="40" height="20" as="geometry" />
        </mxCell>
        <mxCell id="VUjPprjEVErV6ihTRHzX-25" style="edgeStyle=none;rounded=0;orthogonalLoop=1;jettySize=auto;html=1;entryX=0;entryY=0.5;entryDx=0;entryDy=0;endArrow=classic;endFill=1;" edge="1" parent="1" target="VUjPprjEVErV6ihTRHzX-15">
          <mxGeometry relative="1" as="geometry">
            <mxPoint x="221" y="174" as="sourcePoint" />
          </mxGeometry>
        </mxCell>
        <mxCell id="VUjPprjEVErV6ihTRHzX-14" value="" style="rounded=0;whiteSpace=wrap;html=1;" vertex="1" parent="1">
          <mxGeometry x="220" y="155" width="21.5" height="38" as="geometry" />
        </mxCell>
        <mxCell id="VUjPprjEVErV6ihTRHzX-15" value="" style="rounded=0;whiteSpace=wrap;html=1;" vertex="1" parent="1">
          <mxGeometry x="327.75" y="155" width="21.5" height="38" as="geometry" />
        </mxCell>
        <mxCell id="VUjPprjEVErV6ihTRHzX-16" value="PROJECTION" style="text;html=1;strokeColor=none;fillColor=none;align=center;verticalAlign=middle;whiteSpace=wrap;rounded=0;" vertex="1" parent="1">
          <mxGeometry x="211" y="34" width="40" height="20" as="geometry" />
        </mxCell>
        <mxCell id="VUjPprjEVErV6ihTRHzX-18" value="OUTPUT" style="text;html=1;strokeColor=none;fillColor=none;align=center;verticalAlign=middle;whiteSpace=wrap;rounded=0;" vertex="1" parent="1">
          <mxGeometry x="318.5" y="34" width="40" height="20" as="geometry" />
        </mxCell>
        <mxCell id="VUjPprjEVErV6ihTRHzX-19" value="sum" style="text;html=1;strokeColor=none;fillColor=none;align=center;verticalAlign=middle;whiteSpace=wrap;rounded=0;" vertex="1" parent="1">
          <mxGeometry x="211" y="135" width="40" height="20" as="geometry" />
        </mxCell>
        <mxCell id="VUjPprjEVErV6ihTRHzX-20" value="w(t)" style="text;html=1;strokeColor=none;fillColor=none;align=center;verticalAlign=middle;whiteSpace=wrap;rounded=0;" vertex="1" parent="1">
          <mxGeometry x="318.5" y="135" width="40" height="20" as="geometry" />
        </mxCell>
        <mxCell id="VUjPprjEVErV6ihTRHzX-26" value="INPUT" style="text;html=1;strokeColor=none;fillColor=none;align=center;verticalAlign=middle;whiteSpace=wrap;rounded=0;" vertex="1" parent="1">
          <mxGeometry x="432.5" y="34" width="40" height="20" as="geometry" />
        </mxCell>
        <mxCell id="VUjPprjEVErV6ihTRHzX-27" value="PROJECTION" style="text;html=1;strokeColor=none;fillColor=none;align=center;verticalAlign=middle;whiteSpace=wrap;rounded=0;" vertex="1" parent="1">
          <mxGeometry x="530.5" y="34" width="40" height="20" as="geometry" />
        </mxCell>
        <mxCell id="VUjPprjEVErV6ihTRHzX-28" value="OUTPUT" style="text;html=1;strokeColor=none;fillColor=none;align=center;verticalAlign=middle;whiteSpace=wrap;rounded=0;" vertex="1" parent="1">
          <mxGeometry x="638" y="34" width="40" height="20" as="geometry" />
        </mxCell>
        <mxCell id="VUjPprjEVErV6ihTRHzX-50" style="edgeStyle=none;rounded=0;orthogonalLoop=1;jettySize=auto;html=1;exitX=1;exitY=0.5;exitDx=0;exitDy=0;entryX=0;entryY=0.5;entryDx=0;entryDy=0;endArrow=classic;endFill=1;" edge="1" parent="1" source="VUjPprjEVErV6ihTRHzX-29" target="VUjPprjEVErV6ihTRHzX-31">
          <mxGeometry relative="1" as="geometry" />
        </mxCell>
        <mxCell id="VUjPprjEVErV6ihTRHzX-29" value="" style="rounded=0;whiteSpace=wrap;html=1;" vertex="1" parent="1">
          <mxGeometry x="427" y="155" width="21.5" height="38" as="geometry" />
        </mxCell>
        <mxCell id="VUjPprjEVErV6ihTRHzX-30" value="w(t)" style="text;html=1;strokeColor=none;fillColor=none;align=center;verticalAlign=middle;whiteSpace=wrap;rounded=0;" vertex="1" parent="1">
          <mxGeometry x="420" y="135" width="40" height="20" as="geometry" />
        </mxCell>
        <mxCell id="VUjPprjEVErV6ihTRHzX-51" style="edgeStyle=none;rounded=0;orthogonalLoop=1;jettySize=auto;html=1;exitX=1;exitY=0;exitDx=0;exitDy=0;entryX=0;entryY=0.5;entryDx=0;entryDy=0;endArrow=classic;endFill=1;" edge="1" parent="1" source="VUjPprjEVErV6ihTRHzX-31" target="VUjPprjEVErV6ihTRHzX-42">
          <mxGeometry relative="1" as="geometry" />
        </mxCell>
        <mxCell id="VUjPprjEVErV6ihTRHzX-52" style="edgeStyle=none;rounded=0;orthogonalLoop=1;jettySize=auto;html=1;exitX=1;exitY=0.25;exitDx=0;exitDy=0;endArrow=classic;endFill=1;" edge="1" parent="1" source="VUjPprjEVErV6ihTRHzX-31" target="VUjPprjEVErV6ihTRHzX-41">
          <mxGeometry relative="1" as="geometry" />
        </mxCell>
        <mxCell id="VUjPprjEVErV6ihTRHzX-54" style="edgeStyle=none;rounded=0;orthogonalLoop=1;jettySize=auto;html=1;exitX=1;exitY=0.75;exitDx=0;exitDy=0;entryX=0;entryY=0.5;entryDx=0;entryDy=0;endArrow=classic;endFill=1;" edge="1" parent="1" source="VUjPprjEVErV6ihTRHzX-31" target="VUjPprjEVErV6ihTRHzX-45">
          <mxGeometry relative="1" as="geometry" />
        </mxCell>
        <mxCell id="VUjPprjEVErV6ihTRHzX-59" style="edgeStyle=none;rounded=0;orthogonalLoop=1;jettySize=auto;html=1;exitX=1;exitY=0.5;exitDx=0;exitDy=0;endArrow=classic;endFill=1;entryX=0;entryY=0.5;entryDx=0;entryDy=0;" edge="1" parent="1" source="VUjPprjEVErV6ihTRHzX-31" target="VUjPprjEVErV6ihTRHzX-46">
          <mxGeometry relative="1" as="geometry" />
        </mxCell>
        <mxCell id="VUjPprjEVErV6ihTRHzX-31" value="" style="rounded=0;whiteSpace=wrap;html=1;" vertex="1" parent="1">
          <mxGeometry x="539.5" y="155" width="21.5" height="38" as="geometry" />
        </mxCell>
        <mxCell id="VUjPprjEVErV6ihTRHzX-41" value="" style="rounded=0;whiteSpace=wrap;html=1;" vertex="1" parent="1">
          <mxGeometry x="638" y="120" width="21.5" height="38" as="geometry" />
        </mxCell>
        <mxCell id="VUjPprjEVErV6ihTRHzX-42" value="" style="rounded=0;whiteSpace=wrap;html=1;" vertex="1" parent="1">
          <mxGeometry x="638" y="68" width="21.5" height="38" as="geometry" />
        </mxCell>
        <mxCell id="VUjPprjEVErV6ihTRHzX-43" value="w(t-2)" style="text;html=1;strokeColor=none;fillColor=none;align=center;verticalAlign=middle;whiteSpace=wrap;rounded=0;" vertex="1" parent="1">
          <mxGeometry x="669" y="77" width="40" height="20" as="geometry" />
        </mxCell>
        <mxCell id="VUjPprjEVErV6ihTRHzX-44" value="w(t-1)" style="text;html=1;strokeColor=none;fillColor=none;align=center;verticalAlign=middle;whiteSpace=wrap;rounded=0;" vertex="1" parent="1">
          <mxGeometry x="669" y="129" width="40" height="20" as="geometry" />
        </mxCell>
        <mxCell id="VUjPprjEVErV6ihTRHzX-45" value="" style="rounded=0;whiteSpace=wrap;html=1;" vertex="1" parent="1">
          <mxGeometry x="638" y="242" width="21.5" height="38" as="geometry" />
        </mxCell>
        <mxCell id="VUjPprjEVErV6ihTRHzX-46" value="" style="rounded=0;whiteSpace=wrap;html=1;" vertex="1" parent="1">
          <mxGeometry x="638" y="190" width="21.5" height="38" as="geometry" />
        </mxCell>
        <mxCell id="VUjPprjEVErV6ihTRHzX-47" value="w(t+1)" style="text;html=1;strokeColor=none;fillColor=none;align=center;verticalAlign=middle;whiteSpace=wrap;rounded=0;" vertex="1" parent="1">
          <mxGeometry x="669" y="199" width="40" height="20" as="geometry" />
        </mxCell>
        <mxCell id="VUjPprjEVErV6ihTRHzX-48" value="w(t+2)" style="text;html=1;strokeColor=none;fillColor=none;align=center;verticalAlign=middle;whiteSpace=wrap;rounded=0;" vertex="1" parent="1">
          <mxGeometry x="669" y="251" width="40" height="20" as="geometry" />
        </mxCell>
        <mxCell id="VUjPprjEVErV6ihTRHzX-61" value="&lt;font color=&quot;#000000&quot;&gt;namenode&lt;/font&gt;" style="fontColor=#0066CC;verticalAlign=top;verticalLabelPosition=bottom;labelPosition=center;align=center;html=1;outlineConnect=0;gradientColor=none;gradientDirection=north;strokeWidth=2;shape=mxgraph.networks.server;fillColor=#FFFFFF;" vertex="1" parent="1">
          <mxGeometry x="153" y="433" width="42" height="58" as="geometry" />
        </mxCell>
        <mxCell id="VUjPprjEVErV6ihTRHzX-62" value="&lt;font color=&quot;#000000&quot;&gt;用户画像&lt;br&gt;数据仓库&lt;br&gt;&lt;/font&gt;" style="fontColor=#0066CC;verticalAlign=top;verticalLabelPosition=bottom;labelPosition=center;align=center;html=1;outlineConnect=0;gradientColor=none;gradientDirection=north;strokeWidth=2;shape=mxgraph.networks.storage;fillColor=#FFFFFF;" vertex="1" parent="1">
          <mxGeometry x="206.5" y="433" width="56" height="52" as="geometry" />
        </mxCell>
        <mxCell id="VUjPprjEVErV6ihTRHzX-64" value="Hadoop大数据平台" style="text;html=1;strokeColor=none;fillColor=none;align=center;verticalAlign=middle;whiteSpace=wrap;rounded=0;" vertex="1" parent="1">
          <mxGeometry x="188" y="395" width="123" height="14" as="geometry" />
        </mxCell>
        <mxCell id="VUjPprjEVErV6ihTRHzX-65" value="&lt;font color=&quot;#000000&quot;&gt;datanode&lt;/font&gt;" style="fontColor=#0066CC;verticalAlign=top;verticalLabelPosition=bottom;labelPosition=center;align=center;html=1;outlineConnect=0;gradientColor=none;gradientDirection=north;strokeWidth=2;shape=mxgraph.networks.server;fillColor=#FFFFFF;" vertex="1" parent="1">
          <mxGeometry x="276.5" y="433" width="42" height="58" as="geometry" />
        </mxCell>
        <mxCell id="VUjPprjEVErV6ihTRHzX-66" value="&lt;font color=&quot;#000000&quot;&gt;hbase&lt;/font&gt;" style="fontColor=#0066CC;verticalAlign=top;verticalLabelPosition=bottom;labelPosition=center;align=center;html=1;outlineConnect=0;gradientColor=none;gradientDirection=north;strokeWidth=2;shape=mxgraph.networks.server;fillColor=#FFFFFF;" vertex="1" parent="1">
          <mxGeometry x="333" y="433" width="42" height="58" as="geometry" />
        </mxCell>
        <mxCell id="VUjPprjEVErV6ihTRHzX-114" value="" style="edgeStyle=none;shape=flexArrow;rounded=0;orthogonalLoop=1;jettySize=auto;html=1;startSize=5;endArrow=classic;endFill=1;endSize=5;" edge="1" parent="1">
          <mxGeometry relative="1" as="geometry">
            <mxPoint x="606" y="525" as="sourcePoint" />
            <mxPoint x="606" y="623" as="targetPoint" />
          </mxGeometry>
        </mxCell>
        <mxCell id="VUjPprjEVErV6ihTRHzX-74" value="" style="rounded=1;whiteSpace=wrap;html=1;fillColor=#FFFFFF;" vertex="1" parent="1">
          <mxGeometry x="484" y="396" width="244" height="127" as="geometry" />
        </mxCell>
        <mxCell id="VUjPprjEVErV6ihTRHzX-75" value="&lt;font color=&quot;#000000&quot;&gt;节点1&lt;/font&gt;" style="fontColor=#0066CC;verticalAlign=top;verticalLabelPosition=bottom;labelPosition=center;align=center;html=1;outlineConnect=0;gradientColor=none;gradientDirection=north;strokeWidth=2;shape=mxgraph.networks.server;fillColor=#FFFFFF;" vertex="1" parent="1">
          <mxGeometry x="495" y="438" width="42" height="58" as="geometry" />
        </mxCell>
        <mxCell id="VUjPprjEVErV6ihTRHzX-77" value="Spark集群（用户模型训练）" style="text;html=1;strokeColor=none;fillColor=none;align=center;verticalAlign=middle;whiteSpace=wrap;rounded=0;" vertex="1" parent="1">
          <mxGeometry x="515" y="400" width="169" height="14" as="geometry" />
        </mxCell>
        <mxCell id="VUjPprjEVErV6ihTRHzX-78" value="&lt;font color=&quot;#000000&quot;&gt;节点2&lt;/font&gt;" style="fontColor=#0066CC;verticalAlign=top;verticalLabelPosition=bottom;labelPosition=center;align=center;html=1;outlineConnect=0;gradientColor=none;gradientDirection=north;strokeWidth=2;shape=mxgraph.networks.server;fillColor=#FFFFFF;" vertex="1" parent="1">
          <mxGeometry x="670.75" y="438" width="42" height="58" as="geometry" />
        </mxCell>
        <mxCell id="VUjPprjEVErV6ihTRHzX-82" value="1、用户偏好模型&lt;br&gt;2、用户忠诚度模型&lt;br&gt;3、流失概率模型&lt;br&gt;4、优惠敏感度模型&lt;br&gt;......" style="rounded=1;whiteSpace=wrap;html=1;strokeColor=#000000;fillColor=#FFFFFF;align=left;" vertex="1" parent="1">
          <mxGeometry x="549" y="438" width="115" height="74" as="geometry" />
        </mxCell>
        <mxCell id="VUjPprjEVErV6ihTRHzX-115" value="" style="edgeStyle=none;shape=flexArrow;rounded=0;orthogonalLoop=1;jettySize=auto;html=1;startSize=5;endArrow=classic;endFill=1;endSize=5;exitX=1;exitY=0.5;exitDx=0;exitDy=0;" edge="1" parent="1">
          <mxGeometry relative="1" as="geometry">
            <mxPoint x="401.5" y="650.5" as="sourcePoint" />
            <mxPoint x="502" y="691" as="targetPoint" />
          </mxGeometry>
        </mxCell>
        <mxCell id="VUjPprjEVErV6ihTRHzX-83" value="" style="rounded=1;whiteSpace=wrap;html=1;fillColor=#FFFFFF;" vertex="1" parent="1">
          <mxGeometry x="121.5" y="597" width="279" height="107" as="geometry" />
        </mxCell>
        <mxCell id="VUjPprjEVErV6ihTRHzX-85" value="" style="fontColor=#0066CC;verticalAlign=top;verticalLabelPosition=bottom;labelPosition=center;align=center;html=1;outlineConnect=0;gradientColor=none;gradientDirection=north;strokeWidth=2;shape=mxgraph.networks.web_server;fillColor=#FFFFFF;" vertex="1" parent="1">
          <mxGeometry x="130.5" y="640" width="51" height="55" as="geometry" />
        </mxCell>
        <mxCell id="VUjPprjEVErV6ihTRHzX-86" value="" style="fontColor=#0066CC;verticalAlign=top;verticalLabelPosition=bottom;labelPosition=center;align=center;html=1;outlineConnect=0;gradientColor=none;gradientDirection=north;strokeWidth=2;shape=mxgraph.networks.web_server;fillColor=#FFFFFF;" vertex="1" parent="1">
          <mxGeometry x="183.5" y="640" width="51" height="55" as="geometry" />
        </mxCell>
        <mxCell id="VUjPprjEVErV6ihTRHzX-87" value="" style="fontColor=#0066CC;verticalAlign=top;verticalLabelPosition=bottom;labelPosition=center;align=center;html=1;outlineConnect=0;gradientColor=none;gradientDirection=north;strokeWidth=2;shape=mxgraph.networks.web_server;fillColor=#FFFFFF;" vertex="1" parent="1">
          <mxGeometry x="237.5" y="640" width="51" height="55" as="geometry" />
        </mxCell>
        <mxCell id="VUjPprjEVErV6ihTRHzX-88" value="" style="fontColor=#0066CC;verticalAlign=top;verticalLabelPosition=bottom;labelPosition=center;align=center;html=1;outlineConnect=0;gradientColor=none;gradientDirection=north;strokeWidth=2;shape=mxgraph.networks.web_server;fillColor=#FFFFFF;" vertex="1" parent="1">
          <mxGeometry x="291.5" y="640" width="51" height="55" as="geometry" />
        </mxCell>
        <mxCell id="VUjPprjEVErV6ihTRHzX-89" value="" style="fontColor=#0066CC;verticalAlign=top;verticalLabelPosition=bottom;labelPosition=center;align=center;html=1;outlineConnect=0;gradientColor=none;gradientDirection=north;strokeWidth=2;shape=mxgraph.networks.web_server;fillColor=#FFFFFF;" vertex="1" parent="1">
          <mxGeometry x="344.5" y="640" width="51" height="55" as="geometry" />
        </mxCell>
        <mxCell id="VUjPprjEVErV6ihTRHzX-103" value="" style="edgeStyle=none;shape=flexArrow;rounded=0;orthogonalLoop=1;jettySize=auto;html=1;endArrow=classic;endFill=1;endSize=5;startSize=5;" edge="1" parent="1">
          <mxGeometry relative="1" as="geometry">
            <mxPoint x="263" y="596" as="sourcePoint" />
            <mxPoint x="263.2599277978338" y="524" as="targetPoint" />
          </mxGeometry>
        </mxCell>
        <mxCell id="VUjPprjEVErV6ihTRHzX-91" value="用户画像实时展示异步触发获取web自助后台" style="text;html=1;strokeColor=none;fillColor=none;align=center;verticalAlign=middle;whiteSpace=wrap;rounded=0;" vertex="1" parent="1">
          <mxGeometry x="140" y="600" width="246" height="24" as="geometry" />
        </mxCell>
        <mxCell id="VUjPprjEVErV6ihTRHzX-116" value="" style="edgeStyle=none;shape=flexArrow;rounded=0;orthogonalLoop=1;jettySize=auto;html=1;startSize=5;endArrow=classic;endFill=1;endSize=5;" edge="1" parent="1">
          <mxGeometry relative="1" as="geometry">
            <mxPoint x="403" y="810" as="sourcePoint" />
            <mxPoint x="498" y="721" as="targetPoint" />
          </mxGeometry>
        </mxCell>
        <mxCell id="VUjPprjEVErV6ihTRHzX-92" value="" style="rounded=1;whiteSpace=wrap;html=1;fillColor=#FFFFFF;" vertex="1" parent="1">
          <mxGeometry x="120.5" y="756" width="279" height="107" as="geometry" />
        </mxCell>
        <mxCell id="VUjPprjEVErV6ihTRHzX-93" value="" style="fontColor=#0066CC;verticalAlign=top;verticalLabelPosition=bottom;labelPosition=center;align=center;html=1;outlineConnect=0;gradientColor=none;gradientDirection=north;strokeWidth=2;shape=mxgraph.networks.web_server;fillColor=#FFFFFF;" vertex="1" parent="1">
          <mxGeometry x="129.5" y="799" width="51" height="55" as="geometry" />
        </mxCell>
        <mxCell id="VUjPprjEVErV6ihTRHzX-94" value="" style="fontColor=#0066CC;verticalAlign=top;verticalLabelPosition=bottom;labelPosition=center;align=center;html=1;outlineConnect=0;gradientColor=none;gradientDirection=north;strokeWidth=2;shape=mxgraph.networks.web_server;fillColor=#FFFFFF;" vertex="1" parent="1">
          <mxGeometry x="182.5" y="799" width="51" height="55" as="geometry" />
        </mxCell>
        <mxCell id="VUjPprjEVErV6ihTRHzX-95" value="" style="fontColor=#0066CC;verticalAlign=top;verticalLabelPosition=bottom;labelPosition=center;align=center;html=1;outlineConnect=0;gradientColor=none;gradientDirection=north;strokeWidth=2;shape=mxgraph.networks.web_server;fillColor=#FFFFFF;" vertex="1" parent="1">
          <mxGeometry x="236.5" y="799" width="51" height="55" as="geometry" />
        </mxCell>
        <mxCell id="VUjPprjEVErV6ihTRHzX-96" value="" style="fontColor=#0066CC;verticalAlign=top;verticalLabelPosition=bottom;labelPosition=center;align=center;html=1;outlineConnect=0;gradientColor=none;gradientDirection=north;strokeWidth=2;shape=mxgraph.networks.web_server;fillColor=#FFFFFF;" vertex="1" parent="1">
          <mxGeometry x="290.5" y="799" width="51" height="55" as="geometry" />
        </mxCell>
        <mxCell id="VUjPprjEVErV6ihTRHzX-97" value="" style="fontColor=#0066CC;verticalAlign=top;verticalLabelPosition=bottom;labelPosition=center;align=center;html=1;outlineConnect=0;gradientColor=none;gradientDirection=north;strokeWidth=2;shape=mxgraph.networks.web_server;fillColor=#FFFFFF;" vertex="1" parent="1">
          <mxGeometry x="343.5" y="799" width="51" height="55" as="geometry" />
        </mxCell>
        <mxCell id="VUjPprjEVErV6ihTRHzX-98" value="Java Web毫秒级实时用户画像接口服务" style="text;html=1;strokeColor=none;fillColor=none;align=center;verticalAlign=middle;whiteSpace=wrap;rounded=0;" vertex="1" parent="1">
          <mxGeometry x="139" y="759" width="246" height="24" as="geometry" />
        </mxCell>
        <mxCell id="VUjPprjEVErV6ihTRHzX-100" value="" style="shape=flexArrow;endArrow=classic;startArrow=classic;html=1;exitX=1;exitY=0.5;exitDx=0;exitDy=0;" edge="1" parent="1" source="VUjPprjEVErV6ihTRHzX-63">
          <mxGeometry width="50" height="50" relative="1" as="geometry">
            <mxPoint x="385" y="587" as="sourcePoint" />
            <mxPoint x="481" y="458" as="targetPoint" />
          </mxGeometry>
        </mxCell>
        <mxCell id="VUjPprjEVErV6ihTRHzX-104" value="" style="rounded=1;whiteSpace=wrap;html=1;fillColor=#FFFFFF;" vertex="1" parent="1">
          <mxGeometry x="504.5" y="625" width="186.5" height="175" as="geometry" />
        </mxCell>
        <mxCell id="VUjPprjEVErV6ihTRHzX-105" value="" style="fontColor=#0066CC;verticalAlign=top;verticalLabelPosition=bottom;labelPosition=center;align=center;html=1;outlineConnect=0;gradientColor=none;gradientDirection=north;strokeWidth=2;shape=mxgraph.networks.web_server;fillColor=#FFFFFF;" vertex="1" parent="1">
          <mxGeometry x="632" y="735" width="51" height="55" as="geometry" />
        </mxCell>
        <mxCell id="VUjPprjEVErV6ihTRHzX-106" value="" style="fontColor=#0066CC;verticalAlign=top;verticalLabelPosition=bottom;labelPosition=center;align=center;html=1;outlineConnect=0;gradientColor=none;gradientDirection=north;strokeWidth=2;shape=mxgraph.networks.web_server;fillColor=#FFFFFF;" vertex="1" parent="1">
          <mxGeometry x="518" y="735" width="51" height="55" as="geometry" />
        </mxCell>
        <mxCell id="VUjPprjEVErV6ihTRHzX-107" value="" style="fontColor=#0066CC;verticalAlign=top;verticalLabelPosition=bottom;labelPosition=center;align=center;html=1;outlineConnect=0;gradientColor=none;gradientDirection=north;strokeWidth=2;shape=mxgraph.networks.web_server;fillColor=#FFFFFF;" vertex="1" parent="1">
          <mxGeometry x="577" y="735" width="51" height="55" as="geometry" />
        </mxCell>
        <mxCell id="VUjPprjEVErV6ihTRHzX-110" value="Solar/ES用户画像搜索" style="text;html=1;strokeColor=none;fillColor=none;align=center;verticalAlign=middle;whiteSpace=wrap;rounded=0;" vertex="1" parent="1">
          <mxGeometry x="473" y="628" width="246" height="24" as="geometry" />
        </mxCell>
        <mxCell id="VUjPprjEVErV6ihTRHzX-111" value="用户画像系统" style="rounded=1;whiteSpace=wrap;html=1;strokeColor=#000000;fillColor=#FFFFFF;" vertex="1" parent="1">
          <mxGeometry x="557" y="653" width="78" height="66" as="geometry" />
        </mxCell>
        <mxCell id="VUjPprjEVErV6ihTRHzX-112" style="edgeStyle=none;shape=flexArrow;rounded=0;orthogonalLoop=1;jettySize=auto;html=1;exitX=0.75;exitY=1;exitDx=0;exitDy=0;startSize=5;endArrow=classic;endFill=1;endSize=5;" edge="1" parent="1" source="VUjPprjEVErV6ihTRHzX-111" target="VUjPprjEVErV6ihTRHzX-111">
          <mxGeometry relative="1" as="geometry" />
        </mxCell>
      </root>
    </mxGraphModel>
  </diagram>
</mxfile>
